<svg width="32" height="32" viewBox="0 0 32 32" fill="none" xmlns="http://www.w3.org/2000/svg">
<path d="M4.292 27.708C4.47952 27.8955 4.73383 28.0008 4.999 28.0008C5.26416 28.0008 5.51847 27.8955 5.706 27.708L26 7.414V15C26 15.2652 26.1054 15.5196 26.2929 15.7071C26.4804 15.8946 26.7348 16 27 16C27.2652 16 27.5196 15.8946 27.7071 15.7071C27.8946 15.5196 28 15.2652 28 15V5C28 4.73478 27.8946 4.48043 27.7071 4.29289C27.5196 4.10536 27.2652 4 27 4H17C16.7348 4 16.4804 4.10536 16.2929 4.29289C16.1054 4.48043 16 4.73478 16 5C16 5.26522 16.1054 5.51957 16.2929 5.70711C16.4804 5.89464 16.7348 6 17 6H24.586L4.292 26.292C4.10465 26.48 3.99945 26.7346 3.99945 27C3.99945 27.2654 4.10465 27.52 4.292 27.708Z" fill="#0B56A4"/>
</svg>
