<svg width="34" height="34" viewBox="0 0 34 34" fill="none" xmlns="http://www.w3.org/2000/svg">
<path d="M11.3333 14.5209C14.6585 14.5209 17.3542 11.8253 17.3542 8.50008C17.3542 5.17487 14.6585 2.47925 11.3333 2.47925C8.00812 2.47925 5.3125 5.17487 5.3125 8.50008C5.3125 11.8253 8.00812 14.5209 11.3333 14.5209Z" fill="white"/>
<path d="M14.1666 15.9375H8.49998C6.71598 15.9397 5.0057 16.6494 3.74422 17.9109C2.48275 19.1724 1.77306 20.8827 1.77081 22.6667V28.3333C1.77081 28.6151 1.88275 28.8854 2.08201 29.0846C2.28127 29.2839 2.55152 29.3958 2.83331 29.3958H19.8333C20.1151 29.3958 20.3854 29.2839 20.5846 29.0846C20.7839 28.8854 20.8958 28.6151 20.8958 28.3333V22.6667C20.8936 20.8827 20.1839 19.1724 18.9224 17.9109C17.6609 16.6494 15.9506 15.9397 14.1666 15.9375Z" fill="white"/>
<path d="M23.7986 16.2832C26.7303 16.2832 29.1068 13.9067 29.1068 10.975C29.1068 8.04333 26.7303 5.66675 23.7986 5.66675C20.8669 5.66675 18.4904 8.04333 18.4904 10.975C18.4904 13.9067 20.8669 16.2832 23.7986 16.2832Z" fill="white"/>
<path d="M32.2292 23.46V28.4608C32.227 28.7081 32.1278 28.9447 31.9529 29.1195C31.778 29.2944 31.5415 29.3936 31.2942 29.3958H22.3125V22.6667C22.3103 20.8201 21.6753 19.0301 20.5134 17.595C20.7758 17.5545 21.0412 17.5356 21.3067 17.5384H26.2934C27.8655 17.5372 29.3739 18.1603 30.4869 19.2707C31.5999 20.381 32.2266 21.8878 32.2292 23.46Z" fill="white"/>
</svg>
