<svg width="300" height="224" viewBox="0 0 300 224" fill="none" xmlns="http://www.w3.org/2000/svg">
<path d="M299.598 196.177H0V196.326H299.598V196.177Z" fill="#EBEBEB"/>
<path d="M51.2792 201.881H31.4338V202.03H51.2792V201.881Z" fill="#EBEBEB"/>
<path d="M128.03 200.257H102.546V200.407H128.03V200.257Z" fill="#EBEBEB"/>
<path d="M67.5053 203.984H56.0067V204.134H67.5053V203.984Z" fill="#EBEBEB"/>
<path d="M269.578 206.441H260.452V206.59H269.578V206.441Z" fill="#EBEBEB"/>
<path d="M255.113 206.441H234.567V206.59H255.113V206.441Z" fill="#EBEBEB"/>
<path d="M198.831 202.126H184.552V202.276H198.831V202.126Z" fill="#EBEBEB"/>
<path d="M142.009 169.452H26.3167C25.4093 169.452 24.539 169.092 23.8974 168.45C23.2557 167.809 22.8953 166.938 22.8953 166.031V3.39145C22.9032 2.48923 23.2671 1.62666 23.9079 0.991491C24.5487 0.356319 25.4144 -3.45891e-05 26.3167 2.51815e-09H142.009C142.917 2.51816e-09 143.787 0.360469 144.429 1.00211C145.07 1.64374 145.431 2.51399 145.431 3.4214V166.031C145.431 166.938 145.07 167.809 144.429 168.45C143.787 169.092 142.917 169.452 142.009 169.452ZM26.3167 0.11984C25.4495 0.121423 24.6182 0.466618 24.005 1.07982C23.3918 1.69302 23.0466 2.52425 23.0451 3.39145V166.031C23.0466 166.898 23.3918 167.729 24.005 168.343C24.6182 168.956 25.4495 169.301 26.3167 169.303H142.009C142.877 169.301 143.708 168.956 144.321 168.343C144.934 167.729 145.279 166.898 145.281 166.031V3.39145C145.279 2.52425 144.934 1.69302 144.321 1.07982C143.708 0.466618 142.877 0.121423 142.009 0.11984H26.3167Z" fill="#EBEBEB"/>
<path d="M271.621 169.452H155.917C155.01 169.451 154.14 169.09 153.499 168.449C152.858 167.807 152.497 166.938 152.495 166.031V3.39145C152.505 2.48972 152.869 1.62806 153.509 0.993222C154.15 0.358384 155.015 0.00152692 155.917 0H271.621C272.521 0.00311851 273.384 0.360865 274.022 0.9957C274.66 1.63053 275.023 2.49131 275.031 3.39145V166.031C275.031 166.936 274.672 167.805 274.033 168.446C273.394 169.087 272.526 169.449 271.621 169.452ZM155.917 0.11984C155.049 0.121423 154.218 0.466618 153.605 1.07982C152.992 1.69302 152.646 2.52425 152.645 3.39145V166.031C152.646 166.898 152.992 167.729 153.605 168.343C154.218 168.956 155.049 169.301 155.917 169.303H271.621C272.488 169.301 273.32 168.956 273.933 168.343C274.546 167.729 274.891 166.898 274.893 166.031V3.39145C274.891 2.52425 274.546 1.69302 273.933 1.07982C273.32 0.466618 272.488 0.121423 271.621 0.11984H155.917Z" fill="#EBEBEB"/>
<path d="M184.253 84.7083L248.888 84.7083V19.8993L184.253 19.8993V84.7083Z" fill="#F0F0F0"/>
<path d="M184.253 19.9055H183.138V84.7145H184.253V19.9055Z" fill="#E0E0E0"/>
<path d="M189.963 80.6157H243.183V23.9918L189.963 23.9918V80.6157Z" fill="#FAFAFA"/>
<path d="M210.917 68.3081H227.772C231.427 68.3081 233.872 65.3481 233.231 61.717L229.953 42.9442C229.589 41.1278 228.621 39.4879 227.207 38.2913C225.793 37.0946 224.015 36.4115 222.164 36.353H205.35C201.695 36.353 199.251 39.3131 199.892 42.9442L203.169 61.717C203.531 63.5271 204.492 65.1623 205.898 66.3584C207.304 67.5545 209.072 68.2414 210.917 68.3081Z" fill="#F0F0F0"/>
<path d="M62.8975 104.392H48.5168V193.103H62.8975V104.392Z" fill="#F0F0F0"/>
<path d="M125.999 193.109H49.9849V196.171H125.999V193.109Z" fill="#F0F0F0"/>
<path d="M62.8976 193.109H127.263L127.263 104.398L62.8976 104.398L62.8976 193.109Z" fill="#F5F5F5"/>
<path d="M65.486 166.427H124.675V150.584H65.486V166.427Z" fill="#F0F0F0"/>
<path d="M65.486 187.159H124.675V171.316H65.486V187.159Z" fill="#F0F0F0"/>
<path d="M117.67 149.613H72.4906C72.1001 149.613 71.7836 149.93 71.7836 150.32V151.081C71.7836 151.472 72.1001 151.788 72.4906 151.788H117.67C118.06 151.788 118.377 151.472 118.377 151.081V150.32C118.377 149.93 118.06 149.613 117.67 149.613Z" fill="#F5F5F5"/>
<path d="M117.67 170.351H72.4906C72.1001 170.351 71.7836 170.668 71.7836 171.058V171.819C71.7836 172.21 72.1001 172.526 72.4906 172.526H117.67C118.06 172.526 118.377 172.21 118.377 171.819V171.058C118.377 170.668 118.06 170.351 117.67 170.351Z" fill="#F5F5F5"/>
<path d="M65.486 125.124L124.675 125.124V109.281H65.486V125.124Z" fill="#F0F0F0"/>
<path d="M65.486 145.7H124.675V129.857H65.486V145.7Z" fill="#F0F0F0"/>
<path d="M117.67 108.317H72.4906C72.1001 108.317 71.7836 108.633 71.7836 109.024V109.785C71.7836 110.175 72.1001 110.492 72.4906 110.492H117.67C118.06 110.492 118.377 110.175 118.377 109.785V109.024C118.377 108.633 118.06 108.317 117.67 108.317Z" fill="#F5F5F5"/>
<path d="M117.67 128.881H72.4906C72.1001 128.881 71.7836 129.198 71.7836 129.588V130.349C71.7836 130.74 72.1001 131.056 72.4906 131.056H117.67C118.06 131.056 118.377 130.74 118.377 130.349V129.588C118.377 129.198 118.06 128.881 117.67 128.881Z" fill="#F5F5F5"/>
<path d="M124.932 15.0161H44.2146V85.877H124.932V15.0161Z" fill="#E6E6E6"/>
<path d="M133.585 12.2593H38.9896C38.8844 12.2593 38.7803 12.2801 38.6832 12.3205C38.5861 12.3609 38.498 12.4202 38.4239 12.4948C38.3499 12.5694 38.2913 12.658 38.2516 12.7554C38.2119 12.8528 38.1919 12.957 38.1926 13.0622C38.1926 13.2736 38.2766 13.4763 38.4261 13.6257C38.5755 13.7752 38.7782 13.8591 38.9896 13.8591H133.585C133.796 13.8591 134 13.7754 134.15 13.6261C134.301 13.4768 134.386 13.2741 134.387 13.0622C134.387 12.8493 134.303 12.645 134.152 12.4944C134.002 12.3439 133.797 12.2593 133.585 12.2593Z" fill="#E6E6E6"/>
<path d="M128.36 15.0161H45.8146V85.877H128.36V15.0161Z" fill="#F0F0F0"/>
<path d="M124.932 85.8767H44.2146V88.1477H127.293L124.932 85.8767Z" fill="#E6E6E6"/>
<path d="M134.064 85.8767H51.5248L53.8796 88.1477H136.425L134.064 85.8767Z" fill="#F0F0F0"/>
<path d="M123.566 81.0833V19.8096L50.6141 19.8096V81.0833H123.566Z" fill="#FAFAFA"/>
<path d="M67.1758 81.0833L95.314 19.8096H108.604L80.4599 81.0833H67.1758Z" fill="white"/>
<path d="M83.3121 81.0833L111.456 19.8096H116.633L88.4952 81.0833H83.3121Z" fill="white"/>
<path d="M123.566 81.0833V19.8096H122.955V81.0833H123.566Z" fill="#E6E6E6"/>
<g opacity="0.4">
<path d="M50.6679 10.8274H42.417V69.3029H50.6679V10.8274Z" fill="#F0F0F0"/>
<path d="M53.8857 10.8276H47.4563V69.3031H53.8857V10.8276Z" fill="#E6E6E6"/>
<path d="M58.9189 10.8276H50.668V69.3031H58.9189V10.8276Z" fill="#F0F0F0"/>
<path d="M62.1365 10.8276H55.7072V69.3031H62.1365V10.8276Z" fill="#E6E6E6"/>
<path d="M67.1699 10.8276H58.9189V69.3031H67.1699V10.8276Z" fill="#F0F0F0"/>
</g>
<g opacity="0.4">
<path d="M120.498 10.8274H115.741V69.3029H120.498V10.8274Z" fill="#F0F0F0"/>
<path d="M122.344 10.8276H118.641V69.3031H122.344V10.8276Z" fill="#E6E6E6"/>
<path d="M125.25 10.8276H120.492V69.3031H125.25V10.8276Z" fill="#F0F0F0"/>
<path d="M127.101 10.8276H123.398V69.3031H127.101V10.8276Z" fill="#E6E6E6"/>
<path d="M130.008 10.8276H125.25V69.3031H130.008V10.8276Z" fill="#F0F0F0"/>
</g>
<path d="M213.823 128.354C213.752 129.221 213.94 130.089 214.363 130.849C214.786 131.609 215.425 132.226 216.198 132.623C216.972 133.02 217.846 133.179 218.71 133.08C219.574 132.98 220.389 132.627 221.052 132.064C221.715 131.501 222.196 130.755 222.435 129.919C222.674 129.082 222.66 128.194 222.394 127.366C222.128 126.538 221.623 125.808 220.942 125.267C220.261 124.726 219.435 124.399 218.568 124.327C217.405 124.233 216.252 124.604 215.363 125.359C214.473 126.114 213.919 127.191 213.823 128.354Z" fill="#E0E0E0"/>
<path d="M226.051 135.358C228.458 135.004 230.122 132.766 229.768 130.36C229.413 127.954 227.176 126.29 224.769 126.644C222.363 126.998 220.699 129.236 221.053 131.642C221.407 134.048 223.645 135.712 226.051 135.358Z" fill="#E0E0E0"/>
<path d="M228.725 131.553C228.654 132.42 228.842 133.288 229.265 134.048C229.688 134.808 230.327 135.426 231.1 135.823C231.874 136.22 232.748 136.379 233.612 136.279C234.476 136.179 235.291 135.826 235.954 135.263C236.617 134.701 237.099 133.954 237.337 133.118C237.576 132.282 237.562 131.394 237.296 130.566C237.03 129.738 236.525 129.007 235.844 128.466C235.163 127.925 234.337 127.598 233.471 127.527C232.894 127.478 232.314 127.544 231.764 127.72C231.213 127.897 230.702 128.18 230.261 128.554C229.821 128.928 229.458 129.386 229.194 129.901C228.93 130.415 228.771 130.977 228.725 131.553Z" fill="#E0E0E0"/>
<path d="M205.644 130.661C205.573 131.527 205.761 132.396 206.184 133.156C206.607 133.916 207.246 134.533 208.019 134.93C208.793 135.327 209.667 135.486 210.531 135.386C211.395 135.287 212.21 134.933 212.873 134.371C213.536 133.808 214.017 133.062 214.256 132.225C214.495 131.389 214.481 130.501 214.215 129.673C213.949 128.845 213.444 128.114 212.763 127.574C212.082 127.033 211.256 126.706 210.389 126.634C209.226 126.54 208.073 126.911 207.184 127.666C206.294 128.421 205.74 129.498 205.644 130.661Z" fill="#E0E0E0"/>
<path d="M240.109 135.355C242.515 135.001 244.179 132.763 243.825 130.357C243.471 127.95 241.233 126.287 238.827 126.641C236.42 126.995 234.757 129.233 235.111 131.639C235.465 134.045 237.702 135.709 240.109 135.355Z" fill="#E0E0E0"/>
<path d="M206.959 130.644C208.807 129.063 209.024 126.283 207.443 124.434C205.862 122.586 203.082 122.369 201.234 123.95C199.385 125.531 199.168 128.311 200.749 130.16C202.33 132.008 205.11 132.225 206.959 130.644Z" fill="#E0E0E0"/>
<path d="M193.492 129.66C193.422 130.527 193.61 131.395 194.032 132.155C194.455 132.915 195.094 133.532 195.867 133.929C196.641 134.326 197.515 134.485 198.379 134.386C199.243 134.286 200.058 133.933 200.721 133.37C201.384 132.807 201.866 132.061 202.105 131.225C202.343 130.389 202.329 129.5 202.063 128.672C201.797 127.844 201.292 127.114 200.611 126.573C199.93 126.032 199.104 125.705 198.238 125.633C197.075 125.539 195.922 125.91 195.032 126.665C194.142 127.42 193.588 128.497 193.492 129.66Z" fill="#E0E0E0"/>
<path d="M188.465 130.846C188.465 130.846 189.22 148.864 218.173 148.864C247.126 148.864 247.881 130.846 247.881 130.846H188.465Z" fill="#F0F0F0"/>
<path d="M264.401 148.864H258.894V196.171H264.401V148.864Z" fill="#E6E6E6"/>
<path d="M265.869 148.864H262.627V196.171H265.869V148.864Z" fill="#F0F0F0"/>
<path d="M240.972 148.864H235.466V196.171H240.972V148.864Z" fill="#E6E6E6"/>
<path d="M242.003 148.864H238.761V196.171H242.003V148.864Z" fill="#F0F0F0"/>
<path d="M188.704 154.604H266.875V148.87H188.704V154.604Z" fill="#F0F0F0"/>
<path d="M164.815 148.864H159.308V196.171H164.815V148.864Z" fill="#E6E6E6"/>
<path d="M165.845 148.864H162.604V196.171H165.845V148.864Z" fill="#F0F0F0"/>
<path d="M158.325 154.604H186.35V148.87H158.325V154.604Z" fill="#E6E6E6"/>
<path d="M188.237 148.864H182.731V196.171H188.237V148.864Z" fill="#E6E6E6"/>
<path d="M189.711 148.864H186.47V196.171H189.711V148.864Z" fill="#F0F0F0"/>
<path d="M149.799 223.236C213.962 223.236 265.977 220.199 265.977 216.453C265.977 212.707 213.962 209.67 149.799 209.67C85.6355 209.67 33.6208 212.707 33.6208 216.453C33.6208 220.199 85.6355 223.236 149.799 223.236Z" fill="#F5F5F5"/>
<path d="M213.002 210.503C213.003 211.701 212.579 212.86 211.805 213.774C211.032 214.688 209.959 215.297 208.778 215.495C194.24 217.947 179.394 217.947 164.857 215.495C163.681 215.292 162.614 214.68 161.846 213.766C161.079 212.853 160.659 211.697 160.662 210.503V161.969H213.026L213.002 210.503Z" fill="#407BFF"/>
<path opacity="0.3" d="M160.632 162.844V169.656C163.784 170.825 174.132 171.682 186.817 171.682C199.502 171.682 209.868 170.825 213.002 169.656V162.844H160.632Z" fill="black"/>
<path d="M213.985 168.039C213.985 169.579 202.097 170.825 186.817 170.825C171.538 170.825 159.65 169.579 159.65 168.039L159.152 161.987H214.512L213.985 168.039Z" fill="#407BFF"/>
<path d="M186.817 164.767C202.096 164.767 214.482 163.522 214.482 161.987C214.482 160.451 202.096 159.207 186.817 159.207C171.538 159.207 159.152 160.451 159.152 161.987C159.152 163.522 171.538 164.767 186.817 164.767Z" fill="#407BFF"/>
<path opacity="0.3" d="M186.817 164.767C202.096 164.767 214.482 163.522 214.482 161.987C214.482 160.451 202.096 159.207 186.817 159.207C171.538 159.207 159.152 160.451 159.152 161.987C159.152 163.522 171.538 164.767 186.817 164.767Z" fill="black"/>
<path opacity="0.2" d="M167.655 207.088C167.117 207.087 166.601 206.872 166.22 206.491C165.84 206.111 165.625 205.595 165.624 205.057V177.23C165.625 176.692 165.84 176.176 166.22 175.796C166.601 175.415 167.117 175.201 167.655 175.199C168.193 175.202 168.707 175.417 169.088 175.797C169.468 176.178 169.683 176.692 169.686 177.23V205.057C169.683 205.595 169.468 206.109 169.088 206.49C168.707 206.87 168.193 207.085 167.655 207.088Z" fill="black"/>
<path opacity="0.2" d="M205.986 207.088C205.447 207.087 204.932 206.872 204.551 206.491C204.17 206.111 203.956 205.595 203.954 205.057V177.23C203.956 176.692 204.17 176.176 204.551 175.796C204.932 175.415 205.447 175.201 205.986 175.199C206.523 175.202 207.038 175.417 207.418 175.797C207.799 176.178 208.014 176.692 208.017 177.23V205.057C208.014 205.595 207.799 206.109 207.418 206.49C207.038 206.87 206.523 207.085 205.986 207.088Z" fill="black"/>
<path opacity="0.2" d="M193.205 207.088C192.667 207.085 192.152 206.87 191.772 206.49C191.392 206.109 191.176 205.595 191.173 205.057V177.23C191.176 176.692 191.392 176.178 191.772 175.797C192.152 175.417 192.667 175.202 193.205 175.199C193.743 175.201 194.259 175.415 194.639 175.796C195.02 176.176 195.234 176.692 195.236 177.23V205.057C195.234 205.595 195.02 206.111 194.639 206.491C194.259 206.872 193.743 207.087 193.205 207.088Z" fill="black"/>
<path opacity="0.2" d="M180.43 207.088C179.892 207.085 179.377 206.87 178.997 206.49C178.617 206.109 178.402 205.595 178.398 205.057V177.23C178.402 176.692 178.617 176.178 178.997 175.797C179.377 175.417 179.892 175.202 180.43 175.199C180.968 175.201 181.484 175.415 181.864 175.796C182.245 176.176 182.459 176.692 182.461 177.23V205.057C182.459 205.595 182.245 206.111 181.864 206.491C181.484 206.872 180.968 207.087 180.43 207.088Z" fill="black"/>
<path d="M115.573 50.4285C115.573 50.9783 115.41 51.5159 115.104 51.9731C114.799 52.4303 114.364 52.7867 113.856 52.9971C113.348 53.2075 112.789 53.2626 112.25 53.1553C111.711 53.048 111.215 52.7832 110.827 52.3944C110.438 52.0056 110.173 51.5102 110.066 50.9709C109.958 50.4315 110.013 49.8725 110.224 49.3645C110.434 48.8565 110.791 48.4223 111.248 48.1168C111.705 47.8113 112.243 47.6482 112.792 47.6482C113.53 47.6482 114.237 47.9411 114.758 48.4625C115.28 48.9839 115.573 49.6911 115.573 50.4285Z" fill="#263238"/>
<path d="M110.557 50.8299C110.53 50.8307 110.504 50.8238 110.48 50.81C110.457 50.7962 110.438 50.7761 110.426 50.752C110.242 50.4145 110.126 50.044 110.086 49.6618C110.045 49.2796 110.08 48.8932 110.189 48.5246C110.298 48.156 110.478 47.8124 110.72 47.5135C110.961 47.2145 111.26 46.9661 111.597 46.7824C111.935 46.5986 112.305 46.4832 112.687 46.4426C113.069 46.4021 113.456 46.4372 113.825 46.5459C114.193 46.6547 114.537 46.835 114.836 47.0766C115.135 47.3181 115.383 47.6162 115.567 47.9538C115.584 47.989 115.588 48.0296 115.577 48.0674C115.566 48.1053 115.541 48.1374 115.507 48.1575C115.49 48.167 115.471 48.173 115.451 48.1751C115.431 48.1772 115.411 48.1755 115.393 48.1699C115.374 48.1643 115.356 48.1551 115.341 48.1427C115.325 48.1303 115.313 48.1149 115.303 48.0976C114.97 47.4858 114.408 47.0313 113.74 46.834C113.072 46.6368 112.353 46.7131 111.741 47.046C111.129 47.3789 110.675 47.9413 110.477 48.6093C110.28 49.2774 110.356 49.9964 110.689 50.6082C110.699 50.6255 110.705 50.6445 110.707 50.6642C110.709 50.6838 110.707 50.7036 110.702 50.7225C110.696 50.7415 110.687 50.7591 110.674 50.7745C110.662 50.7898 110.647 50.8025 110.629 50.812C110.607 50.8234 110.583 50.8296 110.557 50.8299Z" fill="#263238"/>
<path d="M107.855 63.1314C107.314 63.1292 106.783 62.9769 106.323 62.6915C105.863 62.406 105.49 61.9986 105.248 61.5144C105.005 61.0302 104.901 60.4882 104.948 59.9486C104.995 59.409 105.19 58.8929 105.512 58.4577C105.742 58.1499 106.03 57.8905 106.36 57.6941C106.69 57.4978 107.056 57.3683 107.436 57.3132C107.455 57.3098 107.475 57.3104 107.494 57.315C107.513 57.3196 107.531 57.328 107.547 57.3398C107.563 57.3516 107.576 57.3665 107.585 57.3836C107.595 57.4006 107.601 57.4195 107.604 57.439C107.609 57.4779 107.598 57.5172 107.575 57.5486C107.551 57.58 107.516 57.6009 107.478 57.6068C106.789 57.7077 106.168 58.0782 105.752 58.6366C105.337 59.1951 105.16 59.8959 105.261 60.5848C105.362 61.2737 105.732 61.8943 106.291 62.3101C106.849 62.7259 107.55 62.9027 108.239 62.8018C108.278 62.7955 108.319 62.8052 108.352 62.8288C108.384 62.8524 108.406 62.8879 108.412 62.9277C108.419 62.9674 108.409 63.008 108.386 63.0406C108.362 63.0732 108.326 63.0951 108.287 63.1014C108.144 63.1203 107.999 63.1304 107.855 63.1314Z" fill="#263238"/>
<path d="M122.961 67.6616C122.399 67.6607 121.849 67.4963 121.379 67.1882C121.346 67.1661 121.322 67.132 121.313 67.093C121.304 67.0539 121.311 67.0129 121.331 66.9785C121.354 66.9461 121.389 66.9237 121.428 66.9159C121.467 66.9081 121.507 66.9155 121.541 66.9366C122.125 67.3156 122.835 67.4471 123.516 67.3021C124.197 67.1571 124.793 66.7476 125.172 66.1636C125.551 65.5796 125.682 64.8689 125.537 64.1879C125.392 63.507 124.983 62.9115 124.399 62.5325C124.366 62.5104 124.342 62.4763 124.333 62.4372C124.324 62.3982 124.33 62.3572 124.351 62.3227C124.374 62.2903 124.409 62.2679 124.448 62.2601C124.486 62.2523 124.527 62.2597 124.561 62.2808C125.21 62.7038 125.666 63.3668 125.827 64.1249C125.989 64.8829 125.844 65.6742 125.424 66.3254C125.216 66.6494 124.946 66.9286 124.629 67.1468C124.312 67.3649 123.955 67.5175 123.578 67.5957C123.375 67.6383 123.168 67.6604 122.961 67.6616Z" fill="#263238"/>
<path d="M111.235 59.099C113.406 59.099 115.165 57.3392 115.165 55.1683C115.165 52.9974 113.406 51.2375 111.235 51.2375C109.064 51.2375 107.304 52.9974 107.304 55.1683C107.304 57.3392 109.064 59.099 111.235 59.099Z" fill="#263238"/>
<path d="M114.924 64.1454C116.96 62.1096 116.96 58.8089 114.924 56.7731C112.888 54.7373 109.587 54.7373 107.552 56.7731C105.516 58.8089 105.516 62.1096 107.552 64.1454C109.587 66.1812 112.888 66.1812 114.924 64.1454Z" fill="#263238"/>
<path d="M111.786 72.8503C114.969 72.8503 117.55 70.2696 117.55 67.086C117.55 63.9025 114.969 61.3218 111.786 61.3218C108.602 61.3218 106.021 63.9025 106.021 67.086C106.021 70.2696 108.602 72.8503 111.786 72.8503Z" fill="#263238"/>
<path d="M123.163 68.8013C123.894 65.7029 121.975 62.5983 118.877 61.8671C115.778 61.1358 112.674 63.0547 111.943 66.1531C111.211 69.2515 113.13 72.356 116.229 73.0873C119.327 73.8186 122.431 71.8997 123.163 68.8013Z" fill="#263238"/>
<path d="M136.67 79.3696C136.67 79.837 136.67 80.4302 136.712 80.9695C136.754 81.5088 136.754 82.084 136.79 82.6412C136.868 83.7557 136.946 84.8822 137.066 86.0027C137.282 88.2517 137.583 90.4907 137.971 92.7197C138.073 93.271 138.162 93.8342 138.276 94.3855L138.54 95.7456C138.606 95.9613 138.54 95.9194 138.456 95.9134C138.372 95.9074 138.456 96.0213 138.81 96.0213C139.714 95.9305 140.596 95.6768 141.41 95.2723C141.889 95.0566 142.381 94.8229 142.872 94.5712C143.363 94.3196 143.861 94.0319 144.31 93.7803L146.06 95.7996C145.642 96.2777 145.198 96.7318 144.73 97.1597C144.268 97.5991 143.78 98.0093 143.268 98.3881C142.731 98.7921 142.164 99.1547 141.572 99.4726C140.898 99.8403 140.176 100.111 139.427 100.276C138.965 100.376 138.491 100.417 138.019 100.395C137.442 100.362 136.877 100.22 136.353 99.976C135.796 99.7144 135.3 99.3388 134.897 98.8734C134.551 98.4689 134.268 98.0144 134.058 97.5253C133.895 97.151 133.763 96.7643 133.662 96.3688L133.429 95.494C133.261 94.8948 133.123 94.3256 132.979 93.7383C132.419 91.3828 131.987 88.9984 131.685 86.5959C131.535 85.3975 131.415 84.1992 131.344 82.9708C131.308 82.3716 131.278 81.7724 131.26 81.1373C131.242 80.5021 131.26 79.9389 131.26 79.2258L136.67 79.3696Z" fill="#FFB573"/>
<path d="M133.764 72.9102C138.875 76.8229 138.672 84.199 138.672 84.199L129.528 86.3861C129.528 86.3861 126.724 78.968 127.862 76.2537C129.049 73.4255 130.888 70.7051 133.764 72.9102Z" fill="#407BFF"/>
<path opacity="0.7" d="M133.764 72.9102C138.875 76.8229 138.672 84.199 138.672 84.199L129.528 86.3861C129.528 86.3861 126.724 78.968 127.862 76.2537C129.049 73.4255 130.888 70.7051 133.764 72.9102Z" fill="white"/>
<path d="M143.969 94.4693L145.479 91.9287L149.266 95.9793C149.266 95.9793 146.551 97.7169 143.735 96.4766L143.969 94.4693Z" fill="#FFB573"/>
<path d="M147.342 90.7122L152.202 93.5763L149.266 95.9791L145.479 91.9285L147.342 90.7122Z" fill="#FFB573"/>
<path d="M105.153 212.032L110.378 212.535L113.625 200.293L108.394 199.79L105.153 212.032Z" fill="#FFB573"/>
<path d="M78.3688 201.744L83.0605 204.2L88.639 193.139L83.9473 190.682L78.3688 201.744Z" fill="#FFB573"/>
<path d="M84.3128 202.049L80.1185 197.789C80.0487 197.714 79.9538 197.668 79.852 197.659C79.7502 197.65 79.6488 197.679 79.5672 197.741L75.7144 200.575C75.6209 200.65 75.5443 200.744 75.4895 200.851C75.4346 200.957 75.4028 201.074 75.396 201.194C75.3892 201.314 75.4077 201.434 75.4501 201.546C75.4926 201.658 75.5581 201.76 75.6425 201.845C77.1285 203.307 77.9194 203.936 79.7649 205.812C80.9034 206.962 83.2403 209.677 84.8101 211.27C86.38 212.864 88.0338 211.396 87.5245 210.593C85.2356 206.998 84.8521 204.739 84.7083 202.912C84.6823 202.586 84.5422 202.281 84.3128 202.049Z" fill="#263238"/>
<path d="M111.193 210.947H104.859C104.746 210.948 104.636 210.986 104.546 211.056C104.456 211.125 104.392 211.221 104.362 211.331L103.008 216.31C102.974 216.428 102.968 216.553 102.991 216.674C103.015 216.795 103.066 216.908 103.141 217.006C103.216 217.103 103.313 217.181 103.424 217.234C103.536 217.287 103.658 217.313 103.781 217.311C106.004 217.311 107.058 217.311 109.832 217.311H118.323C120.63 217.311 121.115 214.98 120.157 214.764C115.878 213.817 113.41 212.511 112.091 211.265C111.842 211.051 111.521 210.938 111.193 210.947Z" fill="#263238"/>
<path opacity="0.2" d="M113.62 200.299L111.948 206.609H106.585L108.389 199.796L113.62 200.299Z" fill="black"/>
<path opacity="0.2" d="M83.9413 190.682L88.639 193.145L85.7629 198.843L81.0652 196.381L83.9413 190.682Z" fill="black"/>
<path d="M132.218 72.1554C132.218 72.1554 134.531 73.1681 126.778 103.847L105.243 101.983C106.363 93.2531 106.837 87.8483 104.206 69.495C107.276 69.1355 110.368 68.9973 113.458 69.0816C116.733 69.1311 120.001 69.4135 123.236 69.9264C126.266 70.5172 129.264 71.2612 132.218 72.1554Z" fill="#407BFF"/>
<path opacity="0.7" d="M132.218 72.1554C132.218 72.1554 134.531 73.1681 126.778 103.847L105.243 101.983C106.363 93.2531 106.837 87.8483 104.206 69.495C107.276 69.1355 110.368 68.9973 113.458 69.0816C116.733 69.1311 120.001 69.4135 123.236 69.9264C126.266 70.5172 129.264 71.2612 132.218 72.1554Z" fill="white"/>
<path d="M113.458 68.9075C113.458 68.9075 112.259 68.9075 110.791 68.9075C109.922 70.2437 113.589 74.1444 118.251 77.9793C119.378 74.486 121.151 74.498 121.151 74.498L113.458 68.9075Z" fill="white"/>
<path d="M123.23 69.8484C123.23 69.8484 123.776 69.9263 125.082 70.2259C125.945 71.5621 126.43 74.9056 123.884 77.8177C122.883 74.2225 121.157 74.5461 121.157 74.5461L123.23 69.8484Z" fill="white"/>
<path d="M115.375 58.1521C115.723 61.3518 115.837 67.14 113.458 69.0814C113.458 69.0814 115.998 71.6819 121.151 74.5461C124.89 71.9576 123.237 69.9263 123.237 69.9263C119.797 68.7878 120.115 66.1933 120.936 63.7965L115.375 58.1521Z" fill="#FFB573"/>
<path opacity="0.2" d="M117.646 60.4587L120.935 63.7963C120.734 64.351 120.581 64.9224 120.48 65.504C119.162 65.1984 117.244 63.8202 117.22 62.4061C117.243 61.7366 117.388 61.0768 117.646 60.4587Z" fill="black"/>
<path d="M127.73 47.7141C129.936 49.6675 130.583 54.4251 128.485 57.6548C127.856 54.3808 127.602 51.0456 127.73 47.7141Z" fill="#263238"/>
<path d="M114.704 51.4353C114.321 56.7022 114.051 58.9252 116.328 61.9632C119.755 66.535 126.31 65.8459 128.258 60.8007C130.013 56.2528 130.343 48.4034 125.508 45.6351C124.445 45.0148 123.241 44.6776 122.011 44.6557C120.781 44.6338 119.566 44.9278 118.482 45.5098C117.398 46.0918 116.481 46.9422 115.82 47.9797C115.158 49.0171 114.774 50.2069 114.704 51.4353Z" fill="#FFB573"/>
<path d="M114.003 55.6775C117.898 55.5277 120.055 50.4346 119.078 48.2835C123.494 50.5844 130.181 52.3939 129.438 49.4339C128.438 45.4373 123.602 42.5072 117.652 44.6403C114.207 46.1383 111.259 49.4339 114.003 55.6775Z" fill="#263238"/>
<path d="M112.816 55.6714C112.983 56.6785 113.538 57.58 114.362 58.182C115.465 58.9669 116.472 58.0921 116.549 56.8158C116.621 55.6594 116.136 53.8618 114.842 53.5862C114.558 53.5299 114.265 53.5454 113.989 53.6313C113.714 53.7173 113.464 53.8709 113.262 54.0782C113.061 54.2854 112.915 54.5398 112.837 54.8181C112.759 55.0964 112.752 55.3897 112.816 55.6714Z" fill="#FFB573"/>
<path d="M126.778 103.847C126.778 103.847 131.649 135.634 128.935 156.054C126.88 171.484 113.619 204.775 113.619 204.775L105.009 204.541C105.009 204.541 113.901 172.275 115.741 159.602C118.886 137.899 111.007 102.504 111.007 102.504L126.778 103.847Z" fill="#263238"/>
<path opacity="0.2" d="M118.377 110.36L113.781 117.604C115.165 126.194 116.043 134.857 116.412 143.55C122.871 131.985 119.839 116.478 118.377 110.36Z" fill="black"/>
<path d="M114.962 205.255L104.14 204.961L104.799 201.48L115.98 201.546L114.962 205.255Z" fill="#407BFF"/>
<path d="M122.068 103.505C122.068 103.505 118.473 138.702 110.258 157.852C103.613 173.311 87.7701 198.04 87.7701 198.04L81.4426 194.337C81.4426 194.337 91.6289 166.84 96.6562 156.534C108.922 131.266 97.513 110.995 105.243 102.007L122.068 103.505Z" fill="#263238"/>
<path d="M88.4592 198.579L80.3881 194.151L81.7003 190.7L90.2987 195.553L88.4592 198.579Z" fill="#407BFF"/>
<path d="M105.027 100.695L103.889 102.541C103.805 102.678 103.966 102.852 104.218 102.87L126.802 104.824C126.994 104.824 127.167 104.758 127.185 104.638L127.551 102.726C127.551 102.594 127.413 102.469 127.203 102.451L105.393 100.563C105.325 100.553 105.257 100.56 105.193 100.583C105.129 100.606 105.072 100.644 105.027 100.695Z" fill="#407BFF"/>
<path d="M107.747 103.385L107.148 103.337C107.034 103.337 106.95 103.26 106.962 103.188L107.454 100.707C107.454 100.629 107.579 100.581 107.693 100.593L108.293 100.641C108.412 100.641 108.496 100.719 108.478 100.791L107.993 103.272C107.969 103.343 107.855 103.397 107.747 103.385Z" fill="#263238"/>
<path d="M125.142 104.89L124.543 104.842C124.423 104.842 124.339 104.764 124.357 104.692L124.848 102.211C124.848 102.139 124.968 102.085 125.082 102.097L125.681 102.145C125.795 102.145 125.879 102.223 125.867 102.295L125.376 104.776C125.364 104.86 125.232 104.902 125.142 104.89Z" fill="#263238"/>
<path d="M116.442 104.14L115.842 104.086C115.729 104.086 115.645 104.008 115.657 103.937L116.148 101.456C116.148 101.384 116.268 101.33 116.388 101.342L116.987 101.396C117.101 101.396 117.185 101.474 117.173 101.546L116.681 104.026C116.669 104.098 116.561 104.146 116.442 104.14Z" fill="#263238"/>
<path d="M122.955 54.0537C122.895 54.4792 123.075 54.8567 123.35 54.8926C123.626 54.9286 123.902 54.617 123.95 54.1916C123.997 53.7661 123.824 53.3886 123.548 53.3527C123.272 53.3167 123.009 53.6283 122.955 54.0537Z" fill="#263238"/>
<path d="M127.761 54.7007C127.707 55.1261 127.886 55.5036 128.162 55.5396C128.438 55.5755 128.713 55.264 128.761 54.8385C128.809 54.4131 128.641 54.0356 128.366 53.9996C128.09 53.9637 127.82 54.2753 127.761 54.7007Z" fill="#263238"/>
<path d="M128.228 54.0057L129.294 53.8499C129.294 53.8499 128.671 54.5749 128.228 54.0057Z" fill="#263238"/>
<path d="M125.873 55.1682C126.123 56.1885 126.51 57.1701 127.023 58.0863C126.786 58.2123 126.525 58.2851 126.257 58.2996C125.989 58.314 125.721 58.2699 125.471 58.1702L125.873 55.1682Z" fill="#ED893E"/>
<path d="M122.979 59.4405C122.136 59.1658 121.429 58.5811 121.002 57.8047C120.991 57.7799 120.99 57.7519 120.999 57.7264C121.008 57.7009 121.026 57.6796 121.049 57.6669C121.075 57.6543 121.104 57.6523 121.131 57.6613C121.158 57.6703 121.18 57.6895 121.193 57.7148C121.46 58.1816 121.832 58.579 122.281 58.8747C122.73 59.1704 123.242 59.356 123.776 59.4165C123.803 59.4165 123.829 59.4272 123.848 59.4463C123.867 59.4654 123.878 59.4913 123.878 59.5184C123.878 59.5454 123.867 59.5713 123.848 59.5904C123.829 59.6095 123.803 59.6202 123.776 59.6202C123.504 59.5903 123.237 59.53 122.979 59.4405Z" fill="#263238"/>
<path d="M120.768 51.5909C120.733 51.5765 120.702 51.5539 120.678 51.525C120.658 51.506 120.642 51.4832 120.632 51.458C120.621 51.4327 120.615 51.4056 120.615 51.3782C120.615 51.3508 120.621 51.3236 120.632 51.2984C120.642 51.2732 120.658 51.2504 120.678 51.2314C120.972 50.9688 121.325 50.7815 121.707 50.6855C122.089 50.5894 122.488 50.5876 122.871 50.6801C122.897 50.6877 122.922 50.7004 122.943 50.7175C122.964 50.7346 122.981 50.7558 122.994 50.7798C123.007 50.8039 123.015 50.8302 123.018 50.8573C123.02 50.8845 123.017 50.9118 123.009 50.9378C122.993 50.9908 122.958 51.0357 122.91 51.0627C122.861 51.0896 122.804 51.0964 122.751 51.0816C122.436 51.0114 122.109 51.0172 121.796 51.0985C121.483 51.1798 121.195 51.3342 120.954 51.549C120.927 51.5689 120.897 51.583 120.865 51.5903C120.833 51.5975 120.8 51.5977 120.768 51.5909Z" fill="#263238"/>
<path d="M129.78 52.8672C129.748 52.855 129.72 52.8367 129.696 52.8133C129.486 52.5668 129.221 52.3732 128.922 52.2483C128.623 52.1234 128.299 52.0706 127.976 52.0943C127.949 52.1003 127.921 52.1005 127.893 52.0948C127.866 52.0892 127.84 52.0777 127.817 52.0613C127.795 52.0449 127.776 52.0238 127.762 51.9996C127.748 51.9753 127.739 51.9483 127.736 51.9205C127.728 51.8657 127.741 51.8097 127.774 51.7648C127.806 51.7198 127.855 51.6896 127.91 51.6808C128.301 51.6456 128.695 51.7045 129.059 51.8525C129.423 52.0005 129.746 52.2334 130.001 52.5317C130.031 52.5663 130.048 52.6094 130.05 52.6545C130.053 52.6997 130.041 52.7445 130.016 52.7822C129.991 52.82 129.954 52.8486 129.912 52.8639C129.869 52.8793 129.823 52.8804 129.78 52.8672Z" fill="#263238"/>
<path d="M134.519 98.0766C134.907 96.8679 135.529 95.7475 136.35 94.7793C137.171 93.8112 138.175 93.0142 139.304 92.4338C140.433 91.8535 141.665 91.5012 142.93 91.3971C144.195 91.293 145.468 91.439 146.677 91.827C147.886 92.2149 149.006 92.8371 149.974 93.658C150.942 94.4789 151.739 95.4825 152.32 96.6115C152.9 97.7404 153.252 98.9726 153.356 100.238C153.461 101.503 153.314 102.776 152.927 103.985L149.2 115.645L130.792 109.731L134.519 98.0766Z" fill="#407BFF"/>
<path opacity="0.3" d="M134.519 98.0766C134.907 96.8679 135.529 95.7475 136.35 94.7793C137.171 93.8112 138.175 93.0142 139.304 92.4338C140.433 91.8535 141.665 91.5012 142.93 91.3971C144.195 91.293 145.468 91.439 146.677 91.827C147.886 92.2149 149.006 92.8371 149.974 93.658C150.942 94.4789 151.739 95.4825 152.32 96.6115C152.9 97.7404 153.252 98.9726 153.356 100.238C153.461 101.503 153.314 102.776 152.927 103.985L149.2 115.645L130.792 109.731L134.519 98.0766Z" fill="black"/>
<path d="M116.358 92.2405L112.99 102.726C112.941 102.877 112.922 103.036 112.934 103.194C112.947 103.352 112.991 103.506 113.063 103.647C113.136 103.788 113.235 103.913 113.356 104.015C113.478 104.118 113.618 104.195 113.769 104.242L130.786 109.707L134.525 98.0707C135.31 95.6321 137.03 93.6046 139.309 92.4339C141.587 91.2632 144.238 91.0449 146.677 91.8271L128.515 85.9909C126.074 85.2105 123.423 85.4302 121.144 86.6018C118.865 87.7734 117.144 89.8013 116.358 92.2405Z" fill="#407BFF"/>
<path d="M125.49 100.192L130.181 85.5893C130.197 85.5368 130.202 85.4816 130.195 85.4272C130.188 85.3728 130.169 85.3206 130.14 85.274C130.111 85.2274 130.073 85.1876 130.027 85.1572C129.981 85.1269 129.93 85.1066 129.876 85.0979L125.082 84.3909L124.483 86.2843L127.976 87.4048L124.021 99.7123L125.49 100.192Z" fill="#263238"/>
<path d="M122.997 99.3885C122.888 99.7269 122.883 100.09 122.981 100.431C123.078 100.773 123.275 101.078 123.546 101.308C123.817 101.537 124.15 101.682 124.503 101.722C124.856 101.763 125.213 101.698 125.529 101.536C125.846 101.374 126.107 101.121 126.279 100.811C126.452 100.5 126.529 100.146 126.5 99.7915C126.472 99.4374 126.339 99.0996 126.118 98.821C125.898 98.5424 125.6 98.3354 125.262 98.2261C125.037 98.1533 124.799 98.1257 124.564 98.1448C124.328 98.1639 124.098 98.2293 123.888 98.3372C123.678 98.4452 123.49 98.5937 123.338 98.7741C123.185 98.9545 123.069 99.1633 122.997 99.3885Z" fill="#263238"/>
<path d="M131.673 111.45L155.281 119.03C155.367 119.058 155.458 119.069 155.548 119.062C155.637 119.054 155.725 119.029 155.805 118.988C155.885 118.947 155.957 118.89 156.015 118.821C156.073 118.752 156.117 118.673 156.144 118.587C156.173 118.501 156.184 118.41 156.178 118.32C156.171 118.23 156.146 118.142 156.105 118.062C156.063 117.981 156.006 117.91 155.937 117.852C155.868 117.794 155.787 117.75 155.701 117.724L130.786 109.725C130.675 110.071 130.706 110.447 130.872 110.771C131.039 111.095 131.327 111.339 131.673 111.45Z" fill="#407BFF"/>
<path opacity="0.2" d="M131.673 111.45L141.32 114.548C141.406 114.576 141.497 114.587 141.588 114.58C141.678 114.573 141.766 114.548 141.847 114.507C141.927 114.465 141.999 114.409 142.058 114.34C142.117 114.271 142.161 114.191 142.189 114.105C142.244 113.931 142.228 113.744 142.145 113.582C142.062 113.42 141.918 113.298 141.746 113.242L130.786 109.725C130.675 110.071 130.706 110.447 130.872 110.771C131.039 111.095 131.327 111.339 131.673 111.45Z" fill="black"/>
<path d="M106.741 77.9555L106.411 78.321L106.04 78.7464C105.788 79.034 105.536 79.3456 105.297 79.6392C104.805 80.2384 104.338 80.8795 103.9 81.5267C102.09 84.0894 100.665 86.9035 99.6701 89.8794C99.4304 90.6224 99.2087 91.3654 99.0349 92.1264C98.975 92.3481 98.969 92.438 98.939 92.5399C98.9344 92.6277 98.9344 92.7157 98.939 92.8035C98.9294 92.8971 98.9294 92.9915 98.939 93.0851C98.939 93.193 99.1428 93.4447 99.6341 93.6843C100.225 93.9501 100.847 94.1393 101.486 94.2476C103.027 94.4926 104.587 94.5949 106.147 94.5532C107.777 94.5532 109.431 94.4094 111.085 94.2356C112.739 94.0618 114.416 93.8461 116.04 93.6005L116.693 96.195C113.349 97.2835 109.908 98.048 106.417 98.4779C104.579 98.7171 102.721 98.7572 100.874 98.5977C99.8188 98.4987 98.7822 98.2526 97.7946 97.8667C97.2022 97.6292 96.6456 97.3106 96.1408 96.92C95.5463 96.4538 95.0563 95.8679 94.7027 95.2003C94.0941 93.9479 93.9313 92.5252 94.2414 91.1677C94.3852 90.2509 94.5949 89.3701 94.8405 88.4474C95.3108 86.676 95.9364 84.9497 96.71 83.2883C97.4857 81.6231 98.3892 80.0204 99.4124 78.4947C99.9277 77.7338 100.479 76.9967 101.054 76.2717C101.348 75.9122 101.653 75.5587 101.953 75.2051L102.438 74.6839C102.612 74.4981 102.75 74.3483 102.99 74.1206L106.741 77.9555Z" fill="#FFB573"/>
<path d="M114.734 94.1517L118.928 91.9287L119.114 96.4347C119.114 96.4347 116.118 97.675 114.404 96.3088L114.734 94.1517Z" fill="#FFB573"/>
<path d="M122.386 91.5872L121.757 95.7396L119.12 96.4346L118.934 91.9287L122.386 91.5872Z" fill="#FFB573"/>
<path d="M104.206 69.5069C101.563 69.9743 97.8665 77.5481 97.8665 77.5481L104.524 83.5401C104.524 83.5401 109.814 77.7638 109.533 74.3244C109.293 71.4183 107.567 68.9077 104.206 69.5069Z" fill="#407BFF"/>
<path opacity="0.7" d="M104.206 69.5069C101.563 69.9743 97.8665 77.5481 97.8665 77.5481L104.524 83.5401C104.524 83.5401 109.814 77.7638 109.533 74.3244C109.293 71.4183 107.567 68.9077 104.206 69.5069Z" fill="white"/>
<path d="M86.374 204.362C86.3043 204.371 86.2338 204.371 86.1642 204.362C85.4991 204.326 84.7921 203.307 84.4266 202.708C84.4152 202.691 84.4092 202.671 84.4092 202.651C84.4092 202.631 84.4152 202.611 84.4266 202.594C84.4375 202.576 84.454 202.563 84.4735 202.555C84.4929 202.548 84.5143 202.547 84.5344 202.552C84.7501 202.594 86.6136 203.014 86.8473 203.643C86.8716 203.711 86.8777 203.785 86.8651 203.856C86.8525 203.927 86.8216 203.994 86.7754 204.05C86.6795 204.195 86.5384 204.305 86.374 204.362ZM84.7382 202.84C85.2714 203.661 85.7987 204.152 86.1762 204.176C86.2622 204.178 86.3471 204.157 86.4228 204.116C86.4984 204.075 86.5621 204.015 86.6076 203.942C86.6335 203.916 86.6512 203.883 86.6586 203.847C86.6661 203.811 86.6629 203.773 86.6496 203.739C86.5058 203.355 85.3853 202.996 84.7382 202.84Z" fill="#407BFF"/>
<path d="M86.1823 202.708C85.6297 202.86 85.0499 202.884 84.4865 202.78C84.4689 202.774 84.453 202.764 84.4404 202.75C84.4278 202.737 84.4189 202.72 84.4146 202.702C84.4062 202.686 84.4019 202.669 84.4019 202.651C84.4019 202.633 84.4062 202.616 84.4146 202.6C84.4626 202.558 85.5531 201.492 86.3141 201.545C86.4081 201.547 86.5005 201.57 86.5838 201.614C86.6671 201.658 86.7389 201.72 86.7934 201.797C86.8589 201.867 86.8991 201.957 86.9078 202.053C86.9165 202.148 86.8931 202.244 86.8414 202.324C86.6693 202.521 86.4379 202.655 86.1823 202.708ZM84.7382 202.612C85.3374 202.696 86.4579 202.546 86.6916 202.205C86.7275 202.151 86.7575 202.067 86.6496 201.929C86.6134 201.876 86.5652 201.833 86.5089 201.803C86.4526 201.773 86.3899 201.756 86.3261 201.755C85.8048 201.719 85.0498 202.33 84.7382 202.612Z" fill="#407BFF"/>
<path d="M113.428 211.75C112.848 211.736 112.272 211.662 111.708 211.528C111.688 211.521 111.671 211.508 111.659 211.491C111.647 211.474 111.641 211.453 111.641 211.432C111.641 211.411 111.647 211.391 111.659 211.374C111.671 211.357 111.688 211.344 111.708 211.336C111.966 211.211 114.261 210.138 114.836 210.545C114.888 210.581 114.929 210.63 114.955 210.687C114.982 210.744 114.992 210.807 114.986 210.869C114.983 210.986 114.953 211.101 114.899 211.205C114.845 211.309 114.768 211.399 114.674 211.468C114.298 211.69 113.862 211.788 113.428 211.75ZM112.068 211.39C112.745 211.516 114.003 211.684 114.524 211.294C114.591 211.242 114.646 211.176 114.685 211.1C114.724 211.025 114.747 210.942 114.752 210.857C114.757 210.831 114.754 210.803 114.744 210.779C114.733 210.754 114.715 210.733 114.692 210.719C114.368 210.498 113.014 210.971 112.05 211.39H112.068Z" fill="#407BFF"/>
<path d="M111.726 211.516C111.704 211.522 111.682 211.522 111.66 211.516C111.646 211.503 111.635 211.486 111.628 211.467C111.622 211.448 111.621 211.428 111.624 211.409C111.624 211.313 112.169 209.054 113.422 209.198C113.733 209.239 113.817 209.389 113.835 209.515C113.913 210.114 112.469 211.247 111.78 211.534L111.726 211.516ZM113.296 209.377C112.505 209.377 112.044 210.695 111.888 211.223C112.637 210.827 113.685 209.887 113.619 209.521C113.619 209.491 113.619 209.407 113.386 209.383L113.296 209.377Z" fill="#407BFF"/>
<path d="M123.434 53.3584L124.495 53.2026C124.495 53.2026 123.866 53.9277 123.434 53.3584Z" fill="#263238"/>
<path d="M160.303 103.487L137.102 108.28C136.705 108.355 136.295 108.271 135.959 108.047C135.623 107.823 135.388 107.477 135.304 107.082L134.22 102.049L133.83 100.191L134.513 98.07C134.608 97.7656 134.723 97.4674 134.855 97.1772C134.87 97.1312 134.89 97.087 134.915 97.0454C135.298 96.1725 135.813 95.364 136.443 94.6486L137.641 94.397L157.534 90.2685C157.931 90.194 158.341 90.2776 158.677 90.5016C159.013 90.7255 159.248 91.072 159.332 91.4669L161.447 101.653C161.534 102.048 161.463 102.461 161.249 102.803C161.035 103.146 160.695 103.391 160.303 103.487Z" fill="#407BFF"/>
<path opacity="0.3" d="M159.152 90.9279L147.959 102.313L145.562 101.342L136.239 97.561L134.927 97.0277C135.309 96.1548 135.825 95.3463 136.455 94.6309L137.653 94.3792L157.546 90.2508C157.851 90.1899 158.167 90.2219 158.453 90.3426C158.74 90.4633 158.983 90.6672 159.152 90.9279Z" fill="black"/>
<path d="M159.152 90.9276L145.563 101.36L144.676 102.043L136.137 97.8063L134.867 97.2072C134.882 97.1611 134.902 97.1169 134.927 97.0753C135.31 96.2024 135.825 95.3939 136.455 94.6785L137.653 94.4269L157.546 90.2984C157.846 90.2327 158.159 90.2574 158.445 90.3694C158.731 90.4814 158.977 90.6756 159.152 90.9276Z" fill="#407BFF"/>
<path opacity="0.2" d="M159.152 90.9276L145.563 101.36L144.676 102.043L136.137 97.8063L134.867 97.2072C134.882 97.1611 134.902 97.1169 134.927 97.0753C135.31 96.2024 135.825 95.3939 136.455 94.6785L137.653 94.4269L157.546 90.2984C157.846 90.2327 158.159 90.2574 158.445 90.3694C158.731 90.4814 158.977 90.6756 159.152 90.9276Z" fill="white"/>
<path d="M188.627 124.501L181.556 132.122C181.277 132.419 180.892 132.594 180.485 132.609C180.077 132.623 179.681 132.477 179.381 132.2L162.041 116.052C161.742 115.774 161.566 115.388 161.552 114.98C161.537 114.573 161.685 114.176 161.963 113.877L169.057 106.255C169.195 106.106 169.36 105.985 169.545 105.9C169.729 105.815 169.929 105.768 170.131 105.76C170.334 105.753 170.537 105.786 170.727 105.858C170.917 105.929 171.09 106.038 171.238 106.177L188.573 122.325C188.798 122.534 188.955 122.806 189.024 123.105C189.094 123.404 189.072 123.717 188.962 124.003C188.887 124.191 188.773 124.361 188.627 124.501Z" fill="#407BFF"/>
<path opacity="0.3" d="M188.938 124.033L173.168 121.463L169.507 105.884C169.786 105.755 170.097 105.712 170.401 105.76C170.705 105.808 170.988 105.945 171.214 106.153L188.549 122.302C188.785 122.515 188.949 122.796 189.018 123.106C189.088 123.416 189.06 123.74 188.938 124.033Z" fill="black"/>
<path d="M188.938 124.033L173.581 119.455L169.507 105.938C169.786 105.809 170.097 105.766 170.401 105.814C170.705 105.862 170.988 105.999 171.214 106.207L188.549 122.356C188.774 122.565 188.931 122.836 189 123.135C189.07 123.434 189.048 123.747 188.938 124.033Z" fill="#407BFF"/>
<path opacity="0.2" d="M188.938 124.033L173.581 119.455L169.507 105.938C169.786 105.809 170.097 105.766 170.401 105.814C170.705 105.862 170.988 105.999 171.214 106.207L188.549 122.356C188.774 122.565 188.931 122.836 189 123.135C189.07 123.434 189.048 123.747 188.938 124.033Z" fill="white"/>
<path d="M194.792 137.054L202.582 146.15C202.731 146.324 202.843 146.526 202.91 146.745C202.978 146.964 203.001 147.194 202.977 147.422C202.953 147.649 202.882 147.87 202.77 148.069C202.658 148.269 202.506 148.444 202.324 148.583L185.403 161.765C185.119 161.936 184.781 161.995 184.455 161.931C184.129 161.867 183.839 161.684 183.641 161.417L177.548 154.467C177.433 154.333 177.338 154.184 177.266 154.023C177.153 153.803 177.106 153.554 177.13 153.308C177.155 153.061 177.25 152.827 177.404 152.633L192.384 136.988C192.618 136.735 192.927 136.563 193.265 136.499C193.604 136.434 193.954 136.479 194.265 136.629C194.466 136.736 194.645 136.88 194.792 137.054Z" fill="#407BFF"/>
<path opacity="0.3" d="M194.265 136.646L190.544 153.196L177.29 154.041C177.177 153.821 177.13 153.572 177.154 153.326C177.179 153.079 177.274 152.845 177.428 152.651L192.408 137.006C192.64 136.758 192.945 136.59 193.278 136.525C193.612 136.46 193.957 136.503 194.265 136.646Z" fill="black"/>
<path d="M194.265 136.646L188.027 154.209L177.278 154.041C177.165 153.821 177.118 153.572 177.142 153.326C177.166 153.079 177.261 152.845 177.416 152.651L192.396 137.006C192.629 136.755 192.935 136.585 193.272 136.521C193.608 136.456 193.956 136.5 194.265 136.646Z" fill="#407BFF"/>
<path opacity="0.2" d="M194.265 136.646L188.027 154.209L177.278 154.041C177.165 153.821 177.118 153.572 177.142 153.326C177.166 153.079 177.261 152.845 177.416 152.651L192.396 137.006C192.629 136.755 192.935 136.585 193.272 136.521C193.608 136.456 193.956 136.5 194.265 136.646Z" fill="white"/>
</svg>
