<svg width="19" height="14" viewBox="0 0 19 14" fill="none" xmlns="http://www.w3.org/2000/svg">
<path d="M11.5833 6.5835C11.5833 7.24654 11.32 7.88242 10.8511 8.35126C10.3823 8.8201 9.74638 9.0835 9.08334 9.0835C8.4203 9.0835 7.78442 8.8201 7.31558 8.35126C6.84674 7.88242 6.58334 7.24654 6.58334 6.5835C6.58334 5.92045 6.84674 5.28457 7.31558 4.81573C7.78442 4.34689 8.4203 4.0835 9.08334 4.0835C9.74638 4.0835 10.3823 4.34689 10.8511 4.81573C11.32 5.28457 11.5833 5.92045 11.5833 6.5835Z" stroke="white" stroke-width="1.5" stroke-linecap="round" stroke-linejoin="round"/>
<path d="M0.75 6.58333C2.08333 3.16917 5.19667 0.75 9.08333 0.75C12.97 0.75 16.0833 3.16917 17.4167 6.58333C16.0833 9.9975 12.97 12.4167 9.08333 12.4167C5.19667 12.4167 2.08333 9.9975 0.75 6.58333Z" stroke="white" stroke-width="1.5" stroke-linecap="round" stroke-linejoin="round"/>
</svg>
