<svg width="28" height="32" viewBox="0 0 28 32" fill="none" xmlns="http://www.w3.org/2000/svg">
<path d="M23.4259 10.7854C25.5458 10.7854 27.2644 9.06684 27.2644 6.9469C27.2644 4.82695 25.5458 3.1084 23.4259 3.1084C21.306 3.1084 19.5874 4.82695 19.5874 6.9469C19.5874 9.06684 21.306 10.7854 23.4259 10.7854Z" fill="#0B56A4"/>
<path d="M26.1877 21.9859C25.1629 20.2781 24.6217 18.324 24.6217 16.3328V12.6866C24.2359 12.7665 23.8365 12.8104 23.4259 12.8104C20.1926 12.8104 17.5624 10.1801 17.5624 6.94688C17.5624 4.94663 18.5726 3.1815 20.106 2.12288C18.2891 0.79425 16.056 0 13.6327 0C7.56336 0 2.64374 4.91962 2.64374 10.989V16.335C2.64374 18.3251 2.10261 20.2792 1.07774 21.9859L0.274488 23.3235C-0.487137 24.5914 0.426364 26.2058 1.90574 26.2058H25.3586C26.8369 26.2058 27.7504 24.5925 26.9899 23.3246L26.1877 21.9859ZM8.97749 28.2296C9.67386 30.1376 11.4862 31.5 13.6327 31.5C15.7792 31.5 17.5916 30.1376 18.288 28.2296H8.97749Z" fill="#282526"/>
</svg>
