<svg width="27" height="31" viewBox="0 0 27 31" fill="none" xmlns="http://www.w3.org/2000/svg">
<path d="M8.16203 7.09075C7.59306 4.77248 7.76631 2.32133 10.3526 1.51478C11.2188 1.24467 10.9249 1.35428 11.6002 0.810505C12.1916 0.334278 12.9724 0.0519852 13.7256 0.00585742C15.7646 -0.118377 18.0868 1.7556 18.8201 3.5367C19.2747 4.64097 19.3388 5.97657 18.871 7.08858C20.2331 7.11647 19.4392 9.09225 19.0661 9.74088C18.6076 10.5378 18.7263 10.0239 18.5321 11.0399C18.113 13.2323 16.4946 15.4959 14.4612 16.4165C14.8035 16.8953 15.2957 17.5636 15.501 18.111C15.3242 18.8622 14.8036 19.4282 14.6019 20.0729C14.4882 20.4363 14.9994 22.701 15.0361 23.3359C15.8832 21.5675 16.7321 19.6486 17.4463 17.8334C17.7696 17.0119 17.9808 15.9906 19.0992 16.4001C19.7097 16.6237 20.2947 16.9437 20.8877 17.2108L22.8715 18.1197C25.4228 19.3101 25.6556 20.0777 26.0103 22.6548L26.7667 27.947C26.8541 28.5717 26.9776 29.2178 27.0027 29.848C27.0458 30.9269 25.7371 30.6985 25.0469 30.6984L22.5278 30.6978C19.4216 30.6975 16.3109 30.6642 13.2052 30.7026C12.1925 30.6875 11.1782 30.6979 10.1652 30.6978L2.49117 30.6986C2.09624 30.6987 0.828824 30.7537 0.515465 30.6329C-0.257663 30.3347 0.0452615 29.3831 0.128146 28.7657L0.94078 23.0813C1.39379 19.8831 1.42713 19.3956 4.56558 17.9245C5.63277 17.4243 6.70148 16.9269 7.77727 16.4453C8.87379 15.9546 9.0979 16.6547 9.46304 17.542C10.2724 19.5088 11.1853 21.4304 12.0269 23.3831C12.1506 22.4364 12.429 21.2837 12.4814 20.3693C12.5073 19.9183 11.7276 18.7259 11.5432 18.1337L11.5342 18.1044C11.646 17.6483 12.2262 16.8051 12.54 16.4487C10.53 15.5682 8.76683 12.949 8.41527 10.8738C8.27168 10.0262 8.29905 10.4008 7.94303 9.76169C7.70508 9.33453 7.05145 7.709 7.47933 7.25986C7.64949 7.08123 7.93503 7.09541 8.16203 7.09075Z" fill="white"/>
</svg>
