<svg width="24" height="24" viewBox="0 0 24 24" fill="none" xmlns="http://www.w3.org/2000/svg">
<path d="M22.808 6.40173C23.1652 6.91066 23.2455 7.48656 23.0491 8.12941L19.3661 20.2633C19.1964 20.8348 18.8549 21.3147 18.3415 21.7031C17.8281 22.0915 17.2813 22.2857 16.7009 22.2857H4.33929C3.65179 22.2857 2.98884 22.0468 2.35045 21.5691C1.71206 21.0915 1.26786 20.5044 1.01786 19.808C0.803575 19.2098 0.794646 18.6428 0.991075 18.1071C0.991075 18.0714 1.00447 17.9508 1.03125 17.7455C1.05804 17.5401 1.0759 17.3749 1.08482 17.2499C1.09375 17.1785 1.08036 17.0825 1.04465 16.962C1.00893 16.8415 0.995539 16.7544 1.00447 16.7008C1.02232 16.6026 1.05804 16.5089 1.11161 16.4196C1.16518 16.3303 1.23884 16.2254 1.33259 16.1049C1.42634 15.9843 1.5 15.8794 1.55357 15.7901C1.75893 15.4508 1.95982 15.0424 2.15625 14.5647C2.35268 14.087 2.48661 13.6785 2.55804 13.3392C2.58482 13.2499 2.58706 13.116 2.56474 12.9374C2.54241 12.7589 2.54018 12.6339 2.55804 12.5624C2.58482 12.4642 2.66072 12.3392 2.78572 12.1874C2.91072 12.0357 2.98661 11.933 3.0134 11.8794C3.2009 11.558 3.3884 11.1473 3.5759 10.6473C3.7634 10.1473 3.875 9.74548 3.91072 9.44191C3.91965 9.36156 3.90849 9.2187 3.87724 9.01334C3.84599 8.80798 3.84822 8.68298 3.88393 8.63834C3.91965 8.52227 4.01786 8.38611 4.17858 8.22986C4.33929 8.07361 4.4375 7.97316 4.47322 7.92852C4.64286 7.69638 4.83259 7.31914 5.04241 6.79682C5.25224 6.2745 5.375 5.8437 5.41072 5.50441C5.41965 5.43298 5.40625 5.31914 5.37054 5.16289C5.33482 5.00664 5.3259 4.88834 5.34375 4.80798C5.36161 4.73655 5.40179 4.6562 5.46429 4.56691C5.52679 4.47763 5.60715 4.37495 5.70536 4.25888C5.80357 4.1428 5.87947 4.04905 5.93304 3.97763C6.00447 3.87048 6.07813 3.73432 6.15402 3.56914C6.22991 3.40397 6.29688 3.24772 6.35491 3.10039C6.41295 2.95307 6.48438 2.79236 6.5692 2.61825C6.65402 2.44414 6.74107 2.30129 6.83036 2.18968C6.91965 2.07807 7.03795 1.97316 7.18527 1.87495C7.33259 1.77673 7.49331 1.72539 7.66741 1.72093C7.84152 1.71647 8.05357 1.74102 8.30357 1.79459L8.29018 1.83477C8.62947 1.75441 8.85715 1.71423 8.97322 1.71423H19.1652C19.8259 1.71423 20.3348 1.96423 20.692 2.46423C21.0491 2.96423 21.1295 3.54459 20.933 4.2053L17.2634 16.3392C16.942 17.4017 16.6228 18.087 16.3058 18.395C15.9888 18.7031 15.4152 18.8571 14.5848 18.8571H2.94643C2.70536 18.8571 2.53572 18.9241 2.4375 19.058C2.33929 19.2008 2.33482 19.3928 2.42411 19.6339C2.6384 20.2589 3.28125 20.5714 4.35268 20.5714H16.7143C16.9732 20.5714 17.2232 20.5022 17.4643 20.3638C17.7054 20.2254 17.8616 20.0401 17.933 19.808L21.9509 6.58923C22.0134 6.39281 22.0357 6.13834 22.0179 5.82584C22.3571 5.95977 22.6205 6.15173 22.808 6.40173ZM8.55804 6.42852C8.52232 6.54459 8.53125 6.64504 8.58482 6.72986C8.6384 6.81468 8.72768 6.85709 8.85268 6.85709H16.9955C17.1116 6.85709 17.2255 6.81468 17.3371 6.72986C17.4487 6.64504 17.5223 6.54459 17.558 6.42852L17.8393 5.57138C17.875 5.4553 17.8661 5.35486 17.8125 5.27004C17.7589 5.18522 17.6696 5.1428 17.5446 5.1428H9.40179C9.28572 5.1428 9.17188 5.18522 9.06027 5.27004C8.94866 5.35486 8.875 5.4553 8.83929 5.57138L8.55804 6.42852ZM7.44643 9.85709C7.41072 9.97316 7.41965 10.0736 7.47322 10.1584C7.52679 10.2433 7.61607 10.2857 7.74107 10.2857H15.8839C16 10.2857 16.1138 10.2433 16.2254 10.1584C16.3371 10.0736 16.4107 9.97316 16.4464 9.85709L16.7277 8.99995C16.7634 8.88388 16.7545 8.78343 16.7009 8.69861C16.6473 8.61379 16.558 8.57138 16.433 8.57138H8.29018C8.17411 8.57138 8.06027 8.61379 7.94866 8.69861C7.83706 8.78343 7.7634 8.88388 7.72768 8.99995L7.44643 9.85709Z" fill="#282526"/>
</svg>
