<svg width="38" height="38" viewBox="0 0 38 38" fill="none" xmlns="http://www.w3.org/2000/svg">
<path d="M19 11.4712C20.8036 11.4712 22.2656 9.95066 22.2656 8.07496C22.2656 6.19926 20.8036 4.67871 19 4.67871C17.1964 4.67871 15.7344 6.19926 15.7344 8.07496C15.7344 9.95066 17.1964 11.4712 19 11.4712Z" fill="white"/>
<path d="M20.995 11.9938H17.005C15.9454 11.9487 14.9112 12.3261 14.1296 13.0431C13.3481 13.76 12.8831 14.7579 12.8369 15.8175V20.9831C12.842 21.5925 13.0353 22.1853 13.3903 22.6806C13.7453 23.1759 14.2446 23.5494 14.82 23.75V30.6375C14.7966 31.25 15.011 31.8479 15.4182 32.306C15.8254 32.7641 16.394 33.0471 17.005 33.0956H20.995C21.606 33.0471 22.1746 32.7641 22.5818 32.306C22.989 31.8479 23.2034 31.25 23.18 30.6375V23.75C23.7516 23.5508 24.2483 23.1809 24.6029 22.6903C24.9576 22.1997 25.1531 21.6121 25.1631 21.0069V15.8175C25.1169 14.7579 24.6519 13.76 23.8704 13.0431C23.0888 12.3261 22.0546 11.9487 20.995 11.9938ZM7.125 12.4213C7.51995 12.4355 7.91014 12.3313 8.2455 12.1222C8.58085 11.9131 8.84609 11.6086 9.00717 11.2477C9.16825 10.8868 9.21783 10.486 9.14955 10.0968C9.08127 9.70752 8.89824 9.34754 8.62394 9.06303C8.34965 8.77851 7.9966 8.58243 7.6101 8.49996C7.22359 8.41749 6.82126 8.45238 6.45472 8.60015C6.08818 8.74793 5.77416 9.00185 5.55293 9.32933C5.33171 9.65682 5.21338 10.0429 5.21312 10.4381C5.2084 10.6939 5.25412 10.9481 5.34765 11.1862C5.44118 11.4243 5.5807 11.6416 5.75825 11.8258C5.93579 12.0099 6.14787 12.1573 6.38238 12.2595C6.61689 12.3617 6.86924 12.4166 7.125 12.4213ZM8.55 13.3713H5.7C4.8616 13.3324 4.0418 13.6263 3.41907 14.189C2.79633 14.7517 2.42108 15.5376 2.375 16.3756V19.9381C2.38192 20.4593 2.56005 20.9636 2.88195 21.3735C3.20384 21.7834 3.65162 22.076 4.15625 22.2063V26.7306C4.12323 27.241 4.29105 27.744 4.62387 28.1323C4.95668 28.5206 5.42812 28.7633 5.9375 28.8088H8.41938C8.67697 28.7893 8.92817 28.719 9.15852 28.6021C9.38886 28.4852 9.59381 28.3238 9.76157 28.1274C9.92933 27.9309 10.0566 27.7032 10.136 27.4574C10.2154 27.2116 10.2455 26.9525 10.2244 26.695V22.135C10.6989 21.9831 11.1137 21.6857 11.4099 21.2851C11.7061 20.8844 11.8688 20.4008 11.875 19.9025V16.34C11.8199 15.5083 11.4408 14.7314 10.819 14.1763C10.1973 13.6212 9.38259 13.3321 8.55 13.3713ZM30.875 12.4213C31.27 12.4355 31.6601 12.3313 31.9955 12.1222C32.3309 11.9131 32.5961 11.6086 32.7572 11.2477C32.9183 10.8868 32.9678 10.486 32.8996 10.0968C32.8313 9.70752 32.6482 9.34754 32.3739 9.06303C32.0996 8.77851 31.7466 8.58243 31.3601 8.49996C30.9736 8.41749 30.5713 8.45238 30.2047 8.60015C29.8382 8.74793 29.5242 9.00185 29.3029 9.32933C29.0817 9.65682 28.9634 10.0429 28.9631 10.4381C28.9584 10.6939 29.0041 10.9481 29.0976 11.1862C29.1912 11.4243 29.3307 11.6416 29.5082 11.8258C29.6858 12.0099 29.8979 12.1573 30.1324 12.2595C30.3669 12.3617 30.6192 12.4166 30.875 12.4213ZM32.3 13.3713H29.45C28.6116 13.3324 27.7918 13.6263 27.1691 14.189C26.5463 14.7517 26.1711 15.5376 26.125 16.3756V19.9381C26.1319 20.4593 26.3101 20.9636 26.6319 21.3735C26.9538 21.7834 27.4016 22.076 27.9062 22.2063V26.7306C27.8732 27.241 28.0411 27.744 28.3739 28.1323C28.7067 28.5206 29.1781 28.7633 29.6875 28.8088H32.1456C32.4032 28.7893 32.6544 28.719 32.8848 28.6021C33.1151 28.4852 33.3201 28.3238 33.4878 28.1274C33.6556 27.9309 33.7828 27.7032 33.8623 27.4574C33.9417 27.2116 33.9717 26.9525 33.9506 26.695V22.135C34.4296 21.9872 34.8495 21.6916 35.1503 21.2906C35.451 20.8896 35.6172 20.4037 35.625 19.9025V16.34C35.5699 15.5083 35.1908 14.7314 34.569 14.1763C33.9473 13.6212 33.1326 13.3321 32.3 13.3713Z" fill="white"/>
</svg>
